<svg xmlns="http://www.w3.org/2000/svg" version="1.1" xmlns:xlink="http://www.w3.org/1999/xlink" xmlns:svgjs="http://svgjs.dev/svgjs" viewBox="0 0 800 800"><defs><linearGradient x1="50%" y1="0%" x2="50%" y2="100%" id="ssscribble-grad"><stop stop-color="hsl(230, 55%, 50%)" stop-opacity="1" offset="0%"></stop><stop stop-color="hsl(230, 55%, 70%)" stop-opacity="1" offset="100%"></stop></linearGradient></defs><g fill="none" stroke-width="1.5" stroke="url(#ssscribble-grad)" stroke-linecap="round"><path d="M923.23 602.5C834.93 621.28 767.72 641.27 733.47 661.93 737.98 682 778.27 701.6 844.98 719.39 927.08 734.93 1007.29 746.58 1071.5 752.57 1111.06 754.19 1117.95 748.13 1092.28 733.29 1038.29 713.76 964.09 686.01 880.5 651.47 796.62 617.38 723.49 582.34 668.14 551.21 634.29 531.93 623.68 525.87 633.89 538.08 662.95 570.97 703.73 624.75 749.74 697.53 798.73 780.97 842.2 869.16 876.26 951.15 907.11 1032.01 887.41 988.28 844.33 875.74 805.58 794.83 762.77 729.06 718.42 695.42 671.21 705.46 625.33 759.38 582.16 849 538.67 955 498.94 1054.91 463.41 1124.36 428.23 1145.86 397.19 1113.01 370.34 1032.79 343.65 928.12 320.86 825.2 302.08 753.38 283.31 735.12 268.98 773.82 259.09 856.59 249.37 961.95 244.37 1059.06 244.14 1122.75 244.26 1138.89 249.2 1102.68 258.62 1024.5 267.72 921.94 280.25 818.72 294.92 736.14 306.73 688.6 317.81 683.35 325.73 716.71 326.32 780.93 319.69 858.71 303.28 933.48 275.68 994.37 236.1 1027.77 184.19 1029.68 123.26 1001.05 54.01 946.1 -19.58 873.75 -90.2 790.51 -154.42 707.86 -205.66 633.59 -238.04 570.51 -248.33 524.42 -234.04 495.44 -198.24 482.64 -143.3 483.67 -76.17 494.36 -9.33 514.45 49.56 537.53 89.78 560.03 101.69 584.51 82.57 604.45 32.42 618.55 -42.38 631.36 -131.55 637.69 -220.91 637.86 -317.77 633.42 -285.71 599.95 -164.76 573.54 -72.37 554.76 6.1 532.93 56.39 507.88 69.81 482.37 45.77 452.81 -9.18 418.6 -85.82 383.03 -167.68 341.91 -240.02 295.03 -292.81 246.86 -315.54 193.58 -305.7 136.55 -265.56 81.51 -200.98 26.7 -121.77 -24.21 -36.77 -65.74 42.57 -96.71 107.99 -112.86 154.72 -112.83 179.01 -94.7 181.69 -58.49 163.94 -11.09 131.46 45.76 90.31 104.4 42.77 152.14 -2.6 183.66 -41.3 190.13 -73.39 166.06 -93.46 111.76 -101.11 31.33 -98.14 -62.98 -83.77 -158.97 -60.27 -239.94 -28.8 -290.07 8.15 -300.13 48.05 -266.37 91.7 -197.56 135.26 -106.57 177.08 -14.61 219.88 52.98 259.53 80.24 295.34 56.88 331.12 -14.04 362.81 -116.66 390.21 -225.73 417.51 -312.24 440.65 -352.86 459.43 -334.64 478.2 -262.84 492.18 -158.02 501.46 -49.63 510.64 34.32 514.99 72.71 514.63 58.49 514.23 -3.69 509.36 -94.63 500.64 -190.04 492.88 -269.07 482.67 -310.78 471.56 -307.08 464.2 -259.68 458.97 -178.62 458.33 -80.97 465.66 17.18 481.22 97.66 507.18 149.41 543.77 167.37 591.78 152.31 650.74 111.62 716.3 51.8 787.46 -12.94 859.61 -71.77 925.38 -119.94 981.3 -147.95 1021.23 -153.98 1040.73 -139.33 1037.36 -105.33 1010.19 -57.12 964.33 2.94 903.18 67.91 834.93 132.83 772.46 198.21 723.17 257.69 696.79 309.76 700.7 357.15 735.65 396.57 799.02 429.01 881.95 457.1 972.78 480.24 1056.67 500.11 1118.89 517.73 1148.47 534.18 1138.79 550.68 1092.23 566.6 1015.67 583.72 923.28 602.49Q923.23 602.5 923.23 602.5" opacity="0.26"></path><path d="M889.28 560.12C806.02 577.73 740.5 591.61 702.91 601.6 698.93 611.23 727.37 616.29 781.83 616.31 854.45 615.25 931.27 608.48 1000.06 595.86 1052.72 582.35 1079.83 563.64 1078.58 540.9 997.28 502.5 849.86 471.07 703.48 475.4 605.22 535.95 581.97 655.73 619.07 814.41 697.82 950.55 775.67 1014.05 827.22 962.3 852.14 830.88 838.99 695.48 799.63 663.24 772.76 704.74 743.06 779.59 712.25 875.8 679.19 974.31 646.85 1056.53 616.35 1104.19 585.11 1106.68 556.61 1062.25 531.48 979.76 506.2 880.24 484.6 785.45 466.99 719.37 449.39 700.5 436.2 731.96 427.19 804.12 418.03 900.56 412.74 995.99 410.78 1068.33 408.08 1103.42 407.81 1092.5 408.93 1039.48 407.8 955.28 406.24 857.35 402.6 764.38 380.95 650.13 336.11 674.76 256.93 793.59 151.11 929.16 22.72 988.92 -102.16 950.09 -185.41 831.87 -203.9 684.94 -142.31 557.34 -32.58 464 83.24 419.37 138.74 407.35 127.09 411.27 88.51 417.58 25.92 423.9 -52.8 432.79 -138.02 439.16 -217.43 441.74 -295.5 444.13 -245.84 423.87 -130.71 400.25 -43.87 382.65 31.64 359.9 83.68 332.32 104.33 304.78 91.8 272.55 50.01 236.2 -14.85 200.41 -89.98 161.43 -163.1 120.6 -225.35 82.34 -265.65 44.76 -279.16 10.33 -225.25 -38.67 -90.92 -52.02 60.24 -12.96 201.73 108.55 103.4 170.79 5.93 -52.16 -32.62 -207.67 -34.27 -263.9 -7.59 -175.47 13.13 -95.42 37.66 -8.94 64.27 65.32 93.46 108.42 122.82 110.95 151.13 69.08 180.4 -10.02 207.54 -110.63 231.84 -210.56 256.34 -286.21 277.57 -319.48 295.18 -300.64 312.78 -234.58 326.34 -138.01 336.13 -35 349.44 75.79 363.21 27.18 367.59 -98.29 372.92 -184.57 379.65 -247.97 389.43 -276.58 423.76 -218.56 483.4 -51.59 576.22 116.48 689.45 204.91 817.01 183.17 929.88 93.2 992.94 -19.33 987.04 -88.57 906.03 -94.88 791.52 -44.95 688.77 44.43 660.66 143.85 687.08 197.09 738.85 247.07 811.03 292.52 894.08 337.09 977.62 376.47 1049.28 410.73 1097.86 443.91 1115.58 472.64 1098.41 497.31 1049.85 521.6 976.12 542.52 889.28 560.12Q889.28 560.12 889.28 560.12" opacity="0.59"></path><path d="M855.28 378.15C713.98 411.01 663.24 423.35 721.85 417.93 855.59 415.06 984.42 401.99 1044.31 391.67 1013.22 404.04 903.29 444.8 762.86 528.49 633.66 644.41 554.85 783.23 533.56 906.9 564.49 968.09 622.31 942.91 681.19 832.87 737.62 703.7 768.71 623.43 773.99 660.27 763.87 808.75 736.59 987.61 701.47 1076.21 661.68 1010.76 623.16 834.48 590.3 685.37 557.44 692.29 531.79 841.64 509.61 1007.46 482.76 1069.69 450.26 980.24 403.44 807.54 341.2 654.28 256 604.62 148.93 662.13 39.39 786.06 -65.59 895.68 -139.59 940.49 -161.37 910.51 -121.52 816.88 -26.54 697.78 79.66 571.27 160.12 469.3 167.13 397.87 83.15 348.41 -64.38 319.05 -210.8 296.86 -282.08 281.19 -238.01 259.6 -96.71 226.74 56.63 193.88 135.73 151.31 105.26 105.01 -14.44 65.22 -150.02 34.8 -232.02 27.3 -228.48 41.78 -138.65 89.62 -4.27 165.49 133.48 233.94 230.8 280.41 273.02 267.34 261.33 179.47 215.3 30.9 160.25 -127.24 100.88 -218.98 62.15 -198.82 47.77 -69.66 47.03 78.94 65.2 149.72 94.06 74.85 127.71 -103.63 163.08 -259.67 195.94 -266.64 228.8 -117.55 257.59 65.4 285.92 143.56 319.03 67.67 360.64 -92.47 418.33 -216.88 489.65 -229.66 582.5 -119.93 692.51 43.43 798.21 187.7 891.42 251.87 946.18 233.76 947.03 153.16 888.67 61.53 785.13 -3.74 684.97 -36.8 624.61 -23.45 645.15 21.1 751.24 88.36 905.53 161.21 1037.92 226.05 1081.07 293.45 1008.63 345.28 855.28 378.15Q855.28 378.15 855.28 378.15" opacity="0.22"></path><path d="M821.28 215.21C687.7 245.73 629.04 267.43 665.7 285.01 777.86 308.36 904.84 338.9 989.79 387.46 1004.75 454.71 941.58 549.02 828.65 666.16 696.75 779.45 584.7 875.89 512.78 922.12 485.3 901.78 496.49 814.97 528.63 692.45 577.52 602.11 620.39 589.43 648.14 682.5 672.63 918.32 637.89 870.83 595.56 651.37 565.04 651.88 529.09 780.7 485.79 941.21 439.06 1032.62 379.31 993.45 304.05 855.09 223.42 690.7 130.3 583.53 34.39 568.84 -44.77 640.05 -99.77 747.49 -112.28 838.39 -80.36 889.3 -4.49 877.94 95.63 818.77 176.79 724.83 212.6 621.96 175.26 528.78 67.95 439.97 -76.39 370.88 -200.33 319.06 -248.76 272.05 -196.29 234.77 -62.71 204.26 81.32 173.74 165.37 151.43 155.95 140.9 61.26 135.17 -65.56 148.75 -165.83 184.66 -205.31 224.96 -165.39 277.59 -66.86 324.5 62.31 336.66 183.1 304.23 270.57 213.34 317.32 82.46 323.16 -61.16 303.11 -164.16 261.83 -181.25 221.06 -101.47 191.8 40.53 165.08 156.54 155.72 178.37 162.3 75.21 171.8 -97.05 192.76 -232.08 223.28 -232.64 253.79 -97.25 292.41 77.04 340.45 174.16 391.42 138.98 456.29 6.58 535.88 -131.99 618.03 -202.71 709.05 -162.68 797.36 -40.58 864.43 113.7 902.4 236.69 895.65 297.05 848.17 290.82 763.56 238.2 666.15 171.95 599.39 101.83 586.84 57.77 648.68 43.39 771.32 47.7 915.52 72.66 1021.99 106.86 1043.19 146.82 965.32 184.7 821.28 215.21Q821.28 215.21 821.28 215.21" opacity="0.60"></path><path d="M787.28 213.35C661.89 241.52 597.39 277.48 614 323.38 702.44 373.1 819.18 438.65 917.3 521.52 969.02 607.61 953.53 702.88 881.91 792.12 772.78 852.99 655.97 874.9 555.68 842.29 480.63 767.89 440.07 664.96 427.5 573.37 439.13 543.21 461.05 594.13 481.88 722.33 507.32 875.55 521.7 987.72 522.08 996.29 521.79 896.98 507.67 739.33 479.5 617.37 451.34 612.33 410.46 720.79 357.62 870.83 304.12 981.84 238.51 988.88 164.25 895.85 94.61 746.84 26.31 609.5 -28.73 532.43 -59.57 532.03 -59.44 593.35 -21.31 679.22 42.05 767.6 125.47 821.87 205.28 834.26 247.57 810.99 237.79 757.91 165.43 692.08 46.66 614.75 -86.1 542.98 -185.4 483.96 -212.89 424.9 -154.1 380.58 -28.71 352.4 113.3 327.27 -158.33 394.81 -109.22 378.04 -11.95 322.25 102.99 227.55 209.75 102.25 297.84 -20.52 353.8 -115.25 380.77 -144.2 382.54 -96.47 370.12 15.58 355.01 143.96 333.06 216.36 319.73 193.31 319.2 71.46 318.65 -89.44 332.06 -203.63 360.23 -198.64 388.39 -76.7 429.99 86.65 483.66 196.86 537.3 199.19 601.87 103.07 672.64 -29.5 736.56 -137.07 795.37 -162.75 837.01 -103.27 853.45 17.64 837.92 153.97 786.75 265.29 716.91 334.81 635.36 353.35 567.41 335.89 544.1 290.06 576.42 241.17 667.82 203.89 794.71 169.83 921.41 155.52 1001.05 158.92 1002.82 166.15 921.64 185.19 787.28 213.35Q787.28 213.35 787.28 213.35" opacity="0.40"></path><path d="M753.28 374.19C636.54 400.01 568.28 440.86 567.23 495.06 631.26 548.87 731.16 613.83 830.88 683.5 906.7 743.15 932.33 792.51 906.27 817.29 837.01 811.74 741.54 769.26 640.92 692.69 544.07 609.65 467.2 535.07 413.4 501.73 379.48 533.94 363.21 630.95 356.46 769.75 359.26 898.62 361.13 969.34 356.42 944.86 353.39 837.45 339.95 692.18 314.13 583.37 288.31 573.66 251.34 662.35 205.68 797.73 161.68 918.54 112.85 963.75 65.3 919.69 27.31 806.5 1.06 669.43 -4.8 555.27 9.19 489.81 49 484.56 112.01 524.25 178.78 596.07 243.64 668.6 286.02 723.09 285.19 760.97 236.4 769.63 141.66 755.55 23.02 726.21 -91.57 687.08 -165.56 647.38 -174.48 604.21 -111.45 567.85 5.28 542.03 173.44 509.18 153.96 483.71 8.38 464.39 -79.57 433.74 -123.8 382.57 -117.19 304.9 -64.97 210.63 20.1 101.02 117.62 -4.63 218 -78.18 303.34 -103.55 367.81 -65 414.31 22.26 441.96 136.18 457.77 230.46 463.29 255.61 467.13 195.72 475.22 64.97 481.19 -80.37 495.98 -174.31 521.8 -164.65 547.62 -55.85 583.24 94.64 625.97 212.03 666.57 246.5 709.7 190.5 748.92 80.56 777.86 -39.32 792.73 -113.18 786.03 -118.51 761.35 -58.29 713.08 46.88 646.54 163.77 582.86 274.18 528.39 353.73 503.06 399.08 523.33 414.09 590.71 407.26 697.61 392.35 869.46 358.42 918.82 343.59 753.28 374.19Q753.28 374.19 753.28 374.19" opacity="0.55"></path><path d="M719.23 557.53C611.59 581 541.62 612.98 525.76 650.22 566.15 684.42 644.8 717.61 736 742.16 821.97 754.1 876.6 746.8 891.13 714.52 867.45 667.23 810.23 601.45 733.64 530.28 644.69 480.05 558.76 460.71 484.2 490.09 418.54 569.57 368.45 687.29 331.46 813.63 302.87 907.02 281.13 937.08 261.75 886.62 244.77 776.77 225.51 645.41 202.04 549.38 178.56 535.9 152 605.83 124.71 723.43 99.82 844.76 78.86 917.33 66.78 918.81 63.09 852.81 74.52 742.19 104.01 622.68 142.39 518.65 194.62 454.36 252.81 432.86 298.63 450.81 328.02 492.94 327.26 541.86 288.29 596.6 212.61 637.95 109.43 661.74 -44.97 677.8 -101 641.51 39.23 607.84 153.19 584.36 239.7 558.93 276.75 529.39 256.85 496.54 192.11 453.75 105.5 397.05 14.57 332.58 -52.59 252.59 -83.44 161.67 -77.49 76.57 -35.2 0.74 31.16 -47.96 114.56 -57.23 200.11 -20.76 278.05 58.82 350.25 153.88 408.1 243.45 452.55 292.24 489.27 273.56 517.56 187.64 541.42 57.25 562.84 -69.4 584.4 -144.09 607.87 -130.61 631.35 -34.58 655.61 101.53 678.46 220.43 698.88 279.95 713.29 263.25 717.25 187.06 713.48 77.93 694.29 -18.73 658.26 -73.77 616.51 -78.71 564.65 -31.54 512.01 49.45 476.4 151.37 461.93 250.86 480.41 334.32 535.69 402.78 623.9 448.73 732.03 477.47 874.91 498.35 874.1 527.12 719.28 557.52Q719.23 557.53 719.23 557.53" opacity="0.48"></path><path d="M685.78 603.41C552.57 633.08 535.87 660.28 638.33 643.52 721.38 621.69 790.27 584.6 833.59 535.17 850.22 489.24 835.76 445.56 796.94 417.72 738.67 420.53 670.53 458.03 601.49 533.55 530.39 634.57 466.96 746.78 413.59 843.21 363.79 896.5 323.28 890.8 290.73 822.39 259.8 715.29 234.07 598.95 212.94 515.27 191.82 498.93 176.3 551.51 167.4 649.38 160.1 763.11 162.19 850.94 175.38 888.76 192.14 871.25 220.77 803.45 259.32 707.04 295.8 599.27 333.61 504.49 364.19 435.5 375.33 394.43 364.74 382.28 326.11 390.16 260.79 415.75 172.96 445.51 74.42 470.88 -49.53 506.95 -57.28 517.93 73.78 492.34 177.04 471.22 260.32 438.9 306.07 395.91 306.37 352.15 266.38 297.01 200.22 232.69 118.69 170.7 44.3 106.15 -9.49 48 -40.18 7.55 -40.2 -10.63 -14.14 2.74 33.2 44.03 94.04 113.76 159.23 199.53 229.17 273.95 293.8 322.82 349.64 324.86 403.15 271.58 447.33 171.74 482.7 49.86 516.72 -56.17 544.16 -113.05 565.28 -96.75 586.4 -13.08 600.22 107.52 606.04 222.79 610.5 299.37 604.75 317.12 587.85 279.32 568.62 198.37 538.79 105.12 501.41 26.08 468.78 -27.44 438.26 -39.9 418.6 -15.03 420.23 40.5 445.3 114.5 497.99 192.99 573.78 274.98 667.12 346.86 764.12 405.3 845.77 457.68 897.79 498.09 905.64 529.4 868.04 558.12 789.04 582.29 685.78 603.41Q685.78 603.41 685.78 603.41" opacity="0.24"></path><path d="M651.22 472.03C562.92 490.81 495.37 498.32 459.37 494.94 459.63 491.13 491.81 476.19 545.95 451.78 615.6 429.45 683.96 402.68 740.32 378.02 783.2 366.84 803.5 370.02 802.2 395.43 783.01 444.93 748.36 518.99 704.75 611.79 652.9 706.92 600.18 792.87 551.06 850.21 500.73 865.19 456.95 831.7 421.25 753.67 385.81 653.79 358.3 553.15 339.53 481.35 320.75 463.13 311.58 500.11 311.62 577.53 311.9 677.24 321.52 768.44 339.3 829.72 355.88 852.99 377.68 832.05 400.59 776.19 415.26 694.94 422.96 604.94 417.53 520.3 394.22 444.46 351.65 387.63 289.23 349.78 213.31 327.61 128.11 318.57 44.7 316.3 -44.63 323.33 -12.94 319.57 107.22 296.51 199.61 277.74 278.26 249.62 329.71 214.25 346.79 180.28 330.31 142.13 287.79 104.55 224.75 74.28 157.14 52.39 96.47 45.62 44.97 54.53 13.63 84.4 3.28 135.63 10.35 195.66 34.5 263.4 69.85 325.1 114.8 361.41 162.97 365.5 209.45 328.47 258.21 253.43 301.52 151.54 337.28 44.59 373.09 -40.08 400.91 -80.86 419.69 -62.64 438.48 9.15 447.33 113.59 446.93 220.72 442.01 328.08 398.66 270.82 374.02 160.69 367.61 87.44 370.41 35.65 387.94 10.76 422.89 9.96 476.5 33.74 547.55 73.85 627.76 127.46 712.21 185.15 789.02 240.02 845.31 296.97 872.49 346.08 862.67 385.3 818.48 424.09 743.66 453.25 651.27 472.02Q651.22 472.03 651.22 472.03" opacity="0.63"></path><path d="M617.27 277.75C475.96 310.61 421.65 311.83 463.33 300.47 573.98 311.63 681.43 355.58 740.81 462.35 755.82 607.97 720.37 760.66 665.02 828.88 595.59 765.86 536.78 596.44 503.91 447.34 471.05 454.31 467.26 595.75 479.74 745.25 478.14 815.88 462.31 760.89 404.23 637.68 301.78 489.02 159.47 373.95 24.73 303.56 -41.02 255.34 -0.03 223.59 141.27 190.73 294.62 157.87 376.54 127 361.23 118.28 266.07 131.72 157.44 195.5 86.03 301.1 52.09 381.23 70.47 401.37 114.76 306.66 174.79 133.07 229.4 -21.68 262.26 -28.65 295.12 120.44 303.12 303.18 300.05 390.29 312.7 346.16 345.61 228.31 422.62 125.77 537.09 62.07 680.58 69.4 799.82 115.19 839.22 183.5 770.62 244.89 617.27 277.75Q617.27 277.75 617.27 277.75" opacity="0.49"></path><path d="M583.23 190.04C457.86 218.21 391.05 248.57 396.11 293.1 464.16 353.72 552.71 449.97 624.45 577.29 680.95 695.63 698.53 780.72 687.4 777.97 663.77 686.51 631.95 535.33 603.79 413.38 575.62 408.34 553.77 510.3 528.59 642.96 490.91 749.95 429.37 772.66 335.95 723.61 227.3 625.83 108.86 518.44 20.17 432.51 -5.53 350.63 49.86 295.59 175.23 267.43 309.6 239.26 398.22 240.63 416.93 273.7 368.36 310.82 288.33 374.24 215.27 435.11 149.9 447.25 120.72 394.67 122.32 267.05 135.84 113.75 162.04 0.36 190.2 5.35 218.37 127.29 245.84 289.89 281.13 402.02 328.33 425.43 401.46 370.22 503.75 288.8 613.73 198.39 723.64 146.1 792.86 134.28 794.82 138.56 717.64 161.87 583.28 190.03Q583.23 190.04 583.23 190.04" opacity="0.86"></path><path d="M549.23 285.31C441.6 308.78 370.26 356.03 347.76 425.26 373.29 496.95 426.39 587.65 482.49 677.27 543.59 737.03 583.87 752.16 599.34 700.2 609.25 601.1 600.75 475.41 577.28 379.38 553.8 365.9 517.58 430.88 467 532.92 410.85 642.75 333.94 711.29 242.08 728.14 155.22 705.47 77.21 653.03 34.48 596.56 39.78 532.25 101.6 483.16 209.23 459.69 323.19 436.22 410.58 440.59 452.42 464.22 446.19 480.01 406.74 495.82 357.39 487.73 297.74 440.12 254.62 346.69 235.19 219.67 219.88 100.42 224.85 25.91 248.32 39.35 271.78 135.37 311.53 270.58 367.51 386.89 427.61 456.08 507.37 465.85 597.78 436.86 677.9 378 742.26 323.93 765.7 292.92 741.08 264.36 663.23 261.83 549.28 285.3Q549.23 285.31 549.23 285.31" opacity="0.77"></path><path d="M515.48 480.5C427.14 499.28 358.86 537.73 320.03 588.01 311.63 633.08 326.61 677.99 352.39 705.95 390.42 708.24 422.56 674.69 440.31 602.11 458.41 513.22 459.33 417.15 440.55 345.33 421.77 327.07 385.07 360.58 334.44 426.21 284.14 512.85 222.7 588.71 160.06 638.32 92.22 672.93 124.81 630.48 243.48 599.86 335.85 581.09 414.77 568.99 467.42 557 491.52 536.93 490.32 502.81 474.61 445.99 444.35 371.77 416.35 275.99 400.19 175.58 382.61 96.19 381.5 55.07 400.28 73.33 419.05 145.15 455.94 248.84 506.07 351.49 554.77 437.83 612.07 491.3 666.95 513.62 707.27 510.27 728.38 494.67 718.05 482.14 679.15 464.4 607.85 461.72 515.48 480.5Q515.48 480.5 515.48 480.5" opacity="0.18"></path><path d="M481.23 605.57C355.86 633.73 284.52 662.14 268.41 639.56 291.03 571.48 307.17 433.33 279.01 311.38 250.84 306.35 183.69 395.4 124.16 484.08 103.35 569.51 151.86 594.02 277.23 565.85 411.62 537.68 503.48 462.17 537.63 339.83 531.91 214.24 524.22 102.35 552.39 107.38 580.56 229.33 639.25 390.31 681.88 495.31 684.65 554.8 615.62 577.4 481.23 605.57Q481.23 605.57 481.23 605.57" opacity="0.60"></path><path d="M447.28 551.37C292.08 588.93 229.81 454.36 192.26 277.37 154.7 299.56 156.08 424.76 311.28 387.2 481.94 349.65 572.17 163.56 609.73 141.37 647.28 318.36 617.94 513.82 447.28 551.37Q447.28 551.37 447.28 551.37" opacity="0.10"></path></g></svg>